<?xml version="1.0" encoding="UTF-8"?>
<svg xmlns="http://www.w3.org/2000/svg" width="200" height="200" viewBox="0 0 200 200">
  <title>Herradura negra</title>
  <path fill="#000000" d="M137.25 0h28.75v0.25h-28.75zM34 0h28.75v0.5h-28.75zM137 0.25h29v0.25h-29zM33.75 0.5h29.5v0.25h-29.5zM136.75 0.5h29.5v0.25h-29.5zM33.5 0.75h30.25v0.25h-30.25zM136.25 0.75h30.25v0.25h-30.25zM33 1h31.75v0.25h-31.75zM135.25 1h31.75v0.25h-31.75zM32.75 1.25h32.5v0.25h-32.5zM134.5 1.25h32.75v0.25h-32.75zM32.5 1.5h33.25v0.25h-33.25zM134.25 1.5h33.25v0.25h-33.25zM32.25 1.75h34v0.25h-34zM133.75 1.75h34v0.25h-34zM32.25 2h34.5v0.25h-34.5zM133.25 2h34.5v0.25h-34.5zM32 2.25h35v0.25h-35zM133 2.25h35v0.25h-35zM32 2.5h35.25v0.25h-35.25zM132.75 2.5h35.25v0.25h-35.25zM32 2.75h35.5v0.25h-35.5zM132.5 2.75h35.5v0.25h-35.5zM32 3h36v0.25h-36zM132 3h36v0.25h-36zM32 3.25h36.25v0.25h-36.25zM131.75 3.25h36.25v0.25h-36.25zM32 3.5h36.5v0.25h-36.5zM131.5 3.5h36.5v0.25h-36.5zM32 3.75h36.75v0.25h-36.75zM131.25 3.75h36.75v0.25h-36.75zM32 4h37v0.25h-37zM131 4h37v0.25h-37zM32 4.25h37.25v0.25h-37.25zM130.75 4.25h37.25v0.25h-37.25zM32 4.5h37.5v0.25h-37.5zM130.5 4.5h37.5v0.25h-37.5zM32 4.75h37.75v0.25h-37.75zM130.25 4.75h37.75v0.25h-37.75zM32 5h38v0.25h-38zM130 5h38v0.25h-38zM32 5.25h38.25v0.5h-38.25zM129.75 5.25h38.25v0.5h-38.25zM32 5.75h38.5v0.25h-38.5zM129.5 5.75h38.5v0.25h-38.5zM32 6h38.75v0.25h-38.75zM129.25 6h38.75v0.25h-38.75zM32 6.25h39v0.5h-39zM129 6.25h39v0.5h-39zM32 6.75h39.25v0.25h-39.25zM128.75 6.75h39.25v0.25h-39.25zM128.5 7h39.5v0.25h-39.5zM32 7h39.5v0.5h-39.5zM32 7.5h39.75v0.25h-39.75zM128.25 7.25h39.75v0.5h-39.75zM32 7.75h40v0.75h-40zM128 7.75h40v0.75h-40zM32 8.5h40.25v0.5h-40.25zM127.75 8.5h40.25v0.5h-40.25zM32 9h40.5v0.25h-40.5zM127.5 9h40.5v0.25h-40.5zM32 9.25h40.75v0.5h-40.75zM127.25 9.25h40.75v0.5h-40.75zM32 9.75h41v1h-41zM127 9.75h41v1h-41zM126.75 10.75h41.25v0.5h-41.25zM32 10.75h41.25v0.75h-41.25zM32 11.5h41.5v0.25h-41.5zM126.5 11.25h41.5v0.5h-41.5zM32 11.75h41.75v0.75h-41.75zM126.25 11.75h41.75v0.75h-41.75zM126 12.5h42v1h-42zM32 12.5h42v1.25h-42zM125.75 13.5h42.25v0.75h-42.25zM32 13.75h42.25v0.75h-42.25zM32 14.5h42.5v0.5h-42.5zM125.5 14.25h42.5v0.75h-42.5zM125.25 15h42.75v0.75h-42.75zM32 15h42.75v1h-42.75zM125 15.75h43v1.75h-43zM32 16h43v1.75h-43zM124.75 17.5h43.25v1.5h-43.25zM32 17.75h43.25v1.5h-43.25zM124.5 19h43.5v1h-43.5zM32 19.25h43.5v1h-43.5zM124.25 20h43.75v2.25h-43.75zM32 20.25h43.75v2.5h-43.75zM124 22.25h44v4.5h-44zM32 22.75h44v4.25h-44zM32.25 27h43.75v0.25h-43.75zM124 26.75h43.75v0.5h-43.75zM32.5 27.25h43.5v0.25h-43.5zM124 27.25h43.5v0.25h-43.5zM32.75 27.5h43.25v0.25h-43.25zM124 27.5h43.25v0.25h-43.25zM33 27.75h43v0.25h-43zM124 27.75h43v0.25h-43zM33.25 28h42.5v0.25h-42.5zM124 28h42.75v0.25h-42.75zM33.5 28.25h42.25v0.25h-42.25zM124.25 28.25h42.25v0.25h-42.25zM33.75 28.5h42v0.25h-42zM124.25 28.5h42v0.25h-42zM34.25 28.75h41.5v0.25h-41.5zM124.25 28.75h41.5v0.25h-41.5zM46 29h29.75v0.25h-29.75zM124.25 29h29.75v0.25h-29.75zM46.25 29.25h29.5v0.25h-29.5zM124.25 29.25h29.5v0.25h-29.5zM46.5 29.5h29.25v0.5h-29.25zM124.25 29.5h29.25v0.5h-29.25zM46.25 30h29.5v0.5h-29.5zM124.25 30h29.5v0.75h-29.5zM46 30.5h29.5v1h-29.5zM124.5 30.75h29.5v1h-29.5zM46 31.5h29.25v0.5h-29.25zM124.75 31.75h29.25v0.25h-29.25zM45.75 32h29.5v0.75h-29.5zM124.75 32h29.5v0.75h-29.5zM45.5 32.75h29.75v0.25h-29.75zM45.5 33h29.5v0.25h-29.5zM124.75 32.75h29.75v0.5h-29.75zM45.25 33.25h29.75v0.5h-29.75zM125 33.25h29.75v0.75h-29.75zM45 33.75h30v1.25h-30zM125 34h30v1h-30zM125 35h30.25v0.25h-30.25zM44.75 35h30v0.5h-30zM125.25 35.25h30v0.25h-30zM44.5 35.5h30.25v0.25h-30.25zM44.25 35.75h30.5v0.25h-30.5zM125.25 35.5h30.25v0.5h-30.25zM44.25 36h30.25v0.25h-30.25zM125.25 36h30.5v0.25h-30.5zM44.25 36.25h12v0.25h-12zM58.5 36.25h16v0.25h-16zM125.5 36.25h16v0.25h-16zM143.75 36.25h12v0.25h-12zM44 36.5h12v0.25h-12zM58.75 36.5h15.75v0.25h-15.75zM125.5 36.5h15.75v0.25h-15.75zM144 36.5h12v0.25h-12zM44 36.75h11.25v0.25h-11.25zM59.25 36.75h15v0.25h-15zM125.5 36.75h15.25v0.25h-15.25zM144.5 36.75h11.5v0.25h-11.5zM44 37h11v0.25h-11zM59.75 37h14.5v0.25h-14.5zM125.75 37h14.5v0.25h-14.5zM145 37h11v0.25h-11zM43.75 37.25h10.75v0.25h-10.75zM60 37.25h14.25v0.25h-14.25zM125.75 37.25h14.25v0.25h-14.25zM145.5 37.25h10.75v0.25h-10.75zM43.75 37.5h10.5v0.25h-10.5zM60.25 37.5h14v0.25h-14zM125.75 37.5h14v0.25h-14zM145.75 37.5h10.5v0.25h-10.5zM43.5 37.75h10.75v0.25h-10.75zM60.5 37.75h13.5v0.25h-13.5zM126 37.75h13.5v0.25h-13.5zM145.75 37.75h10.75v0.25h-10.75zM43.25 38h10.75v0.25h-10.75zM60.75 38h13.25v0.25h-13.25zM126 38h13.25v0.25h-13.25zM146 38h10.5v0.25h-10.5zM43.25 38.25h10.5v0.25h-10.5zM146 38.25h10.75v0.25h-10.75zM43 38.5h10.75v0.25h-10.75zM146.25 38.5h10.5v0.25h-10.5zM61 38.25h13v0.75h-13zM126 38.25h13v0.75h-13zM146.25 38.75h10.75v0.25h-10.75zM43 38.75h10.5v0.5h-10.5zM61.25 39h12.75v0.25h-12.75zM126 39h12.75v0.25h-12.75zM146.5 39h10.5v0.25h-10.5zM146.75 39.25h10.25v0.25h-10.25zM42.75 39.25h10.5v0.5h-10.5zM126.25 39.25h12.5v0.5h-12.5zM61.25 39.25h12.5v0.75h-12.5zM126.25 39.75h12.25v0.25h-12.25zM146.75 39.5h10.5v0.5h-10.5zM42.5 39.75h10.75v0.5h-10.75zM146.75 40h10.75v0.25h-10.75zM42.25 40.25h11v0.25h-11zM61.5 40h12v0.5h-12zM126.5 40h12v0.5h-12zM146.75 40.25h11v0.5h-11zM61.25 40.5h12v0.5h-12zM126.75 40.5h11.75v0.5h-11.75zM126.75 41h12v0.25h-12zM42 40.5h11.25v1h-11.25zM146.75 40.75h11.25v0.75h-11.25zM41.75 41.5h11.75v0.25h-11.75zM61.25 41h11.75v0.75h-11.75zM127 41.25h11.75v0.5h-11.75zM146.5 41.5h11.75v0.25h-11.75zM41.5 41.75h12v0.25h-12zM61 41.75h12v0.5h-12zM146.25 41.75h12.25v0.5h-12.25zM41.25 42h12.5v0.5h-12.5zM61 42.25h11.75v0.25h-11.75zM127 41.75h12v0.75h-12zM146.25 42.25h12.5v0.25h-12.5zM41 42.5h13v0.25h-13zM60.75 42.5h12v0.25h-12zM146 42.5h13v0.25h-13zM60.5 42.75h12.25v0.25h-12.25zM127.25 42.5h12v0.5h-12zM145.75 42.75h13.25v0.25h-13.25zM41 42.75h13.25v0.5h-13.25zM60.25 43h12.25v0.25h-12.25zM127.5 43h12.25v0.25h-12.25zM145.5 43h13.5v0.25h-13.5zM40.75 43.25h14v0.25h-14zM60 43.25h12.5v0.25h-12.5zM127.5 43.25h12.5v0.25h-12.5zM145.25 43.25h14v0.25h-14zM40.75 43.5h14.25v0.25h-14.25zM59.75 43.5h12.5v0.25h-12.5zM127.75 43.5h12.25v0.25h-12.25zM145 43.5h14.25v0.25h-14.25zM40.5 43.75h14.75v0.25h-14.75zM59.5 43.75h12.75v0.25h-12.75zM127.75 43.75h12.75v0.25h-12.75zM144.75 43.75h14.75v0.25h-14.75zM40.25 44h15.75v0.25h-15.75zM58.75 44h13.25v0.25h-13.25zM128 44h13.25v0.25h-13.25zM144 44h15.75v0.25h-15.75zM40.25 44.25h16.5v0.25h-16.5zM58 44.25h14v0.25h-14zM128 44.25h14v0.25h-14zM143.25 44.25h16.5v0.25h-16.5zM40 44.5h32v0.5h-32zM39.75 45h32.25v0.25h-32.25zM128 44.5h32v0.75h-32zM39.75 45.25h32v0.25h-32zM128.25 45.25h32v0.25h-32zM39.5 45.5h32.25v0.25h-32.25zM128.25 45.5h32.25v0.25h-32.25zM128.5 45.75h32v0.25h-32zM39.25 45.75h32.25v0.5h-32.25zM128.5 46h32.25v0.25h-32.25zM39 46.25h32.25v0.5h-32.25zM128.75 46.25h32.25v0.5h-32.25zM39 46.75h32v0.25h-32zM129 46.75h32v0.25h-32zM38.75 47h32.25v0.5h-32.25zM129 47h32.25v0.5h-32.25zM38.5 47.5h32.5v0.25h-32.5zM129 47.5h32.5v0.25h-32.5zM38.25 47.75h32.5v0.25h-32.5zM38 48h32.75v0.25h-32.75zM129.25 47.75h32.5v0.5h-32.5zM38 48.25h32.5v0.25h-32.5zM38 48.5h32.25v0.25h-32.25zM129.5 48.25h32.5v0.5h-32.5zM37.75 48.75h32.5v0.25h-32.5zM37.75 49h32.25v0.25h-32.25zM129.75 48.75h32.5v0.5h-32.5zM37.5 49.25h32.5v0.25h-32.5zM130 49.25h32.5v0.25h-32.5zM37.25 49.5h32.75v0.5h-32.75zM130 49.5h32.75v0.5h-32.75zM37 50h32.75v0.5h-32.75zM130.25 50h32.75v0.5h-32.75zM36.75 50.5h32.75v0.25h-32.75zM36.75 50.75h32.5v0.25h-32.5zM130.5 50.5h32.75v0.5h-32.75zM36.5 51h32.75v0.25h-32.75zM130.75 51h32.75v0.25h-32.75zM36.25 51.25h32.75v0.5h-32.75zM131 51.25h32.75v0.5h-32.75zM36 51.75h33v0.5h-33zM131 51.75h33v0.5h-33zM131.25 52.25h32.75v0.25h-32.75zM35.75 52.25h33v0.5h-33zM131.25 52.5h33v0.25h-33zM35.5 52.75h33v0.25h-33zM131.5 52.75h33v0.25h-33zM35.25 53h33v0.5h-33zM131.75 53h33v0.5h-33zM35 53.5h33v0.75h-33zM132 53.5h33v0.75h-33zM34.75 54.25h33v0.25h-33zM34.5 54.5h33.25v0.25h-33.25zM132.25 54.25h33v0.5h-33zM34.5 54.75h33v0.25h-33zM132.5 54.75h33v0.25h-33zM34.25 55h33v0.25h-33zM132.75 55h33v0.25h-33zM34 55.25h33.25v0.25h-33.25zM132.75 55.25h33.25v0.25h-33.25zM34 55.5h33v0.5h-33zM133 55.5h33v0.5h-33zM33.75 56h33.25v0.25h-33.25zM133 56h33.25v0.25h-33.25zM33.75 56.25h33v0.25h-33zM133.25 56.25h33v0.25h-33zM33.5 56.5h33.25v0.25h-33.25zM133.25 56.5h33.25v0.25h-33.25zM33.25 56.75h33.25v0.25h-33.25zM133.5 56.75h33.25v0.25h-33.25zM33.25 57h33v0.25h-33zM133.75 57h33v0.25h-33zM33 57.25h33.25v0.25h-33.25zM133.75 57.25h33.25v0.25h-33.25zM33 57.5h33v0.5h-33zM134 57.5h33v0.5h-33zM32.75 58h33.25v0.25h-33.25zM134 58h33.25v0.25h-33.25zM32.75 58.25h33v0.25h-33zM134.25 58.25h33v0.25h-33zM32.5 58.5h33v0.25h-33zM134.25 58.5h33.25v0.25h-33.25zM32.25 58.75h33.25v0.25h-33.25zM134.5 58.75h33.25v0.25h-33.25zM32.25 59h33v0.25h-33zM134.75 59h33v0.25h-33zM32 59.25h33v0.5h-33zM31.75 59.75h33.25v0.25h-33.25zM135 59.25h33v0.75h-33zM31.75 60h33v0.25h-33zM31.5 60.25h33.25v0.25h-33.25zM135.25 60h33v0.5h-33zM31.5 60.5h33v0.25h-33zM135.5 60.5h33v0.25h-33zM31.25 60.75h33v0.25h-33zM31 61h33.25v0.25h-33.25zM135.75 60.75h33v0.5h-33zM31 61.25h33v0.5h-33zM31 61.75h32.75v0.25h-32.75zM136 61.25h33v0.75h-33zM30.75 62h33v0.25h-33zM136.25 62h33v0.25h-33zM30.5 62.25h33v0.25h-33zM136.5 62.25h32.75v0.25h-32.75zM30.5 62.5h32.75v0.25h-32.75zM136.5 62.5h33v0.25h-33zM30.25 62.75h33v0.25h-33zM136.75 62.75h33v0.25h-33zM30.25 63h32.75v0.25h-32.75zM137 63h32.75v0.25h-32.75zM30 63.25h33v0.5h-33zM137 63.25h33v0.5h-33zM30 63.75h32.75v0.25h-32.75zM137.25 63.75h32.75v0.25h-32.75zM137.25 64h33v0.25h-33zM29.75 64h32.75v0.5h-32.75zM137.5 64.25h32.75v0.25h-32.75zM29.5 64.5h32.75v0.25h-32.75zM137.75 64.5h32.75v0.25h-32.75zM29.25 64.75h32.75v0.5h-32.75zM138 64.75h32.75v0.5h-32.75zM29 65.25h33v0.25h-33zM138 65.25h33v0.25h-33zM29 65.5h32.75v0.5h-32.75zM138.25 65.5h32.75v0.5h-32.75zM28.75 66h32.75v0.25h-32.75zM138.5 66h32.5v0.25h-32.5zM28.75 66.25h32.5v0.25h-32.5zM138.75 66.25h32.5v0.25h-32.5zM138.75 66.5h32.75v0.25h-32.75zM28.5 66.5h32.5v0.5h-32.5zM139 66.75h32.5v0.25h-32.5zM28.25 67h32.75v0.25h-32.75zM139 67h32.75v0.25h-32.75zM28.25 67.25h32.5v0.25h-32.5zM139.25 67.25h32.5v0.25h-32.5zM28 67.5h32.75v0.25h-32.75zM139.25 67.5h32.75v0.25h-32.75zM28 67.75h32.5v0.25h-32.5zM139.5 67.75h32.5v0.25h-32.5zM28 68h32.25v0.25h-32.25zM139.75 68h32.25v0.25h-32.25zM27.75 68.25h32.5v0.25h-32.5zM139.75 68.25h32.5v0.25h-32.5zM27.75 68.5h32.25v0.25h-32.25zM140 68.5h32.25v0.25h-32.25zM27.5 68.75h32.5v0.5h-32.5zM140 68.75h32.5v0.5h-32.5zM27.25 69.25h32.5v0.25h-32.5zM140.25 69.25h32.5v0.25h-32.5zM27.25 69.5h32.25v0.25h-32.25zM140.5 69.5h32.25v0.25h-32.25zM140.5 69.75h32.5v0.25h-32.5zM27 69.75h32.25v0.5h-32.25zM140.75 70h32.25v0.25h-32.25zM27 70.25h32v0.25h-32zM141 70.25h32v0.5h-32zM26.75 70.5h32.25v0.5h-32.25zM141 70.75h32.25v0.25h-32.25zM141.25 71h32v0.25h-32zM26.5 71h32.25v0.5h-32.25zM141.25 71.25h32.25v0.25h-32.25zM26.25 71.5h32.25v0.25h-32.25zM141.5 71.5h32.25v0.25h-32.25zM26.25 71.75h32v0.25h-32zM141.75 71.75h32v0.25h-32zM26 72h32.25v0.25h-32.25zM141.75 72h32.25v0.25h-32.25zM26 72.25h32v0.5h-32zM26 72.75h31.75v0.25h-31.75zM142 72.25h32v0.75h-32zM25.75 73h32v0.25h-32zM142.25 73h32v0.25h-32zM25.75 73.25h31.75v0.25h-31.75zM142.5 73.25h31.75v0.25h-31.75zM25.5 73.5h31.75v0.25h-31.75zM142.5 73.5h32v0.25h-32zM25.25 73.75h32v0.25h-32zM142.75 73.75h31.75v0.25h-31.75zM25.25 74h31.75v0.5h-31.75zM143 74h31.75v0.5h-31.75zM25 74.5h32v0.25h-32zM143 74.5h32v0.25h-32zM25 74.75h31.75v0.5h-31.75zM143.25 74.75h31.75v0.5h-31.75zM25 75.25h31.5v0.25h-31.5zM143.5 75.25h31.5v0.25h-31.5zM24.75 75.5h31.5v0.5h-31.5zM143.75 75.5h31.5v0.5h-31.5zM144 76h31.25v0.25h-31.25zM24.5 76h31.5v0.5h-31.5zM144 76.25h31.5v0.25h-31.5zM24.25 76.5h31.75v0.25h-31.75zM144 76.5h31.75v0.25h-31.75zM24.25 76.75h31.5v0.25h-31.5zM144.25 76.75h31.5v0.25h-31.5zM24 77h31.75v0.25h-31.75zM144.25 77h31.75v0.25h-31.75zM24 77.25h31.5v0.25h-31.5zM144.5 77.25h31.5v0.25h-31.5zM24 77.5h31.25v0.5h-31.25zM144.75 77.5h31.25v0.5h-31.25zM24 78h31v0.25h-31zM145 78h31v0.25h-31zM23.75 78.25h31.25v0.5h-31.25zM145 78.25h31.25v0.5h-31.25zM23.5 78.75h31.25v0.5h-31.25zM145.25 78.75h31.25v0.5h-31.25zM23.25 79.25h31.25v0.25h-31.25zM145.5 79.25h31.25v0.25h-31.25zM23.25 79.5h31v0.25h-31zM145.75 79.5h31v0.25h-31zM23 79.75h31.25v0.25h-31.25zM145.75 79.75h31.25v0.25h-31.25zM23 80h31v0.75h-31zM146 80h31v0.75h-31zM23 80.75h30.75v0.25h-30.75zM146.25 80.75h30.75v0.25h-30.75zM22.75 81h31v0.25h-31zM146.25 81h31v0.25h-31zM22.75 81.25h30.75v0.25h-30.75zM146.5 81.25h30.75v0.5h-30.75zM22.5 81.5h30.75v0.5h-30.75zM146.75 81.75h30.75v0.5h-30.75zM22.25 82h30.75v0.75h-30.75zM147 82.25h30.75v0.5h-30.75zM22 82.75h31v0.25h-31zM147 82.75h31v0.25h-31zM22 83h30.75v0.5h-30.75zM147.25 83h30.75v0.5h-30.75zM22 83.5h30.5v0.25h-30.5zM147.5 83.5h30.5v0.25h-30.5zM22 83.75h30.25v0.25h-30.25zM147.75 83.75h30.25v0.25h-30.25zM21.75 84h30.5v0.25h-30.5zM147.75 84h30.5v0.5h-30.5zM21.75 84.25h30.25v0.5h-30.25zM148 84.5h30.25v0.25h-30.25zM21.5 84.75h30.5v0.5h-30.5zM148 84.75h30.5v0.5h-30.5zM148 85.25h30.75v0.25h-30.75zM21.25 85.25h30.5v0.75h-30.5zM148.25 85.5h30.5v0.5h-30.5zM21 86h30.5v0.25h-30.5zM148.5 86h30.5v0.5h-30.5zM21 86.25h30.25v0.75h-30.25zM148.75 86.5h30.25v0.5h-30.25zM21 87h30v0.25h-30zM149 87h30v0.5h-30zM20.75 87.25h30.25v0.75h-30.25zM149 87.5h30.25v0.5h-30.25zM149.25 88h30v0.25h-30zM20.5 88h30.25v0.75h-30.25zM149.25 88.25h30.25v0.5h-30.25zM20.25 88.75h30.25v0.5h-30.25zM149.5 88.75h30.25v0.5h-30.25zM20.25 89.25h30v0.25h-30zM20 89.5h30.25v0.25h-30.25zM149.75 89.25h30v0.5h-30zM20 89.75h30v1.25h-30zM150 89.75h30v1.25h-30zM150.25 91h29.75v0.25h-29.75zM19.75 91h30v0.75h-30zM150.25 91.25h30v0.5h-30zM19.75 91.75h29.75v0.25h-29.75zM150.5 91.75h29.75v0.25h-29.75zM19.5 92h30v0.25h-30zM150.5 92h30v0.25h-30zM19.5 92.25h29.75v0.5h-29.75zM150.75 92.25h29.75v0.5h-29.75zM19.25 92.75h30v0.25h-30zM150.75 92.75h30v0.25h-30zM19.25 93h29.75v0.5h-29.75zM151 93h29.75v0.75h-29.75zM19 93.5h30v0.5h-30zM151 93.75h30v0.25h-30zM19 94h13.5v0.25h-13.5zM34.25 94h14.75v0.25h-14.75zM151 94h14.75v0.25h-14.75zM167.5 94h13.5v0.25h-13.5zM19 94.25h12.75v0.25h-12.75zM35 94.25h13.75v0.25h-13.75zM151.25 94.25h13.75v0.25h-13.75zM168.25 94.25h12.75v0.25h-12.75zM19 94.5h12.5v0.25h-12.5zM35.25 94.5h13.5v0.25h-13.5zM151.25 94.5h13.5v0.25h-13.5zM168.5 94.5h12.5v0.25h-12.5zM19 94.75h12v0.25h-12zM35.75 94.75h13v0.25h-13zM151.25 94.75h13v0.25h-13zM169 94.75h12v0.25h-12zM19 95h11.5v0.25h-11.5zM36 95h12.5v0.25h-12.5zM151.25 95h12.75v0.25h-12.75zM169.25 95h11.75v0.25h-11.75zM36.25 95.25h12.25v0.25h-12.25zM151.5 95.25h12.25v0.25h-12.25zM169.75 95.25h11.25v0.25h-11.25zM18.75 95.25h11.5v0.5h-11.5zM36.5 95.5h12v0.25h-12zM151.5 95.5h12v0.25h-12zM169.75 95.5h11.5v0.25h-11.5zM36.75 95.75h11.5v0.25h-11.5zM151.75 95.75h11.5v0.25h-11.5zM18.75 95.75h11.25v0.5h-11.25zM170 95.75h11.25v0.5h-11.25zM18.75 96.25h11v0.25h-11zM37 96h11.25v0.5h-11.25zM151.75 96h11.25v0.5h-11.25zM37 96.5h11v0.25h-11zM152 96.5h11v0.25h-11zM170.25 96.25h11v0.5h-11zM18.5 96.5h11v0.5h-11zM18.5 97h10.75v0.25h-10.75zM170.5 96.75h11v0.5h-11zM152 96.75h10.75v0.75h-10.75zM170.75 97.25h10.75v0.25h-10.75zM37.25 96.75h10.75v1h-10.75zM37.5 97.75h10.5v0.25h-10.5zM152 97.5h10.5v0.75h-10.5zM18.25 97.25h11v1.25h-11zM37.5 98h10.25v0.5h-10.25zM152.25 98.25h10.25v0.5h-10.25zM170.75 97.5h11v1.25h-11zM37.25 98.5h10.5v0.5h-10.5zM152.25 98.75h10.5v0.25h-10.5zM18 98.5h11.25v0.75h-11.25zM170.75 98.75h11.25v0.5h-11.25zM37.25 99h10.25v0.5h-10.25zM18 99.25h11.5v0.5h-11.5zM37 99.5h10.5v0.25h-10.5zM152.5 99h10.25v0.75h-10.25zM170.5 99.25h11.5v0.5h-11.5zM18 99.75h11.75v0.5h-11.75zM37 99.75h10.25v0.5h-10.25zM170.25 99.75h11.75v0.5h-11.75zM152.75 99.75h10.25v0.75h-10.25zM18 100.25h12v0.5h-12zM36.75 100.25h10.5v0.5h-10.5zM152.75 100.5h10.5v0.25h-10.5zM170 100.25h12v0.5h-12zM17.75 100.75h12.5v0.25h-12.5zM36.5 100.75h10.5v0.25h-10.5zM152.75 100.75h10.75v0.25h-10.75zM169.75 100.75h12.25v0.25h-12.25zM17.75 101h12.75v0.25h-12.75zM36 101h11v0.25h-11zM153 101h11v0.25h-11zM169.25 101h13v0.25h-13zM17.75 101.25h13.25v0.25h-13.25zM35.75 101.25h11.25v0.25h-11.25zM169 101.25h13.25v0.25h-13.25zM17.75 101.5h13.5v0.25h-13.5zM35.5 101.5h11.5v0.25h-11.5zM153 101.25h11.25v0.5h-11.25zM168.75 101.5h13.5v0.25h-13.5zM17.75 101.75h13.75v0.25h-13.75zM35.25 101.75h11.75v0.25h-11.75zM153 101.75h11.75v0.25h-11.75zM168.5 101.75h13.75v0.25h-13.75zM17.75 102h15v0.25h-15zM34 102h13v0.25h-13zM153 102h13v0.25h-13zM167.25 102h15v0.25h-15zM153 102.25h29.25v0.25h-29.25zM17.5 102.25h29.5v0.75h-29.5zM153 102.5h29.5v0.5h-29.5zM17.5 103h29.25v0.5h-29.25zM153.25 103h29.25v0.5h-29.25zM17.25 103.5h29.5v0.75h-29.5zM153.25 103.5h29.5v0.75h-29.5zM17.25 104.25h29.25v1h-29.25zM153.5 104.25h29.25v1.25h-29.25zM17 105.25h29.25v1.75h-29.25zM153.75 105.5h29.25v1.5h-29.25zM17 107h29v2.25h-29zM154 107h29v2.75h-29zM16.75 109.25h29.25v1.75h-29.25zM154 109.75h29.25v1.25h-29.25zM16.75 111h29v1.5h-29zM154.25 111h29v2.5h-29zM154.25 113.5h29.25v5.5h-29.25zM16.5 112.5h29.25v7h-29.25zM16.75 119.5h29v0.5h-29zM154.25 119h29v1h-29zM154 120h29.25v2.5h-29.25zM16.75 120h29.25v2.75h-29.25zM17 122.75h29v1h-29zM154 122.5h29v1.25h-29zM17 123.75h29.25v1.25h-29.25zM153.75 123.75h29.25v1.25h-29.25zM17 125h29.5v1h-29.5zM153.5 125h29.5v1h-29.5zM153.25 126h29.75v0.25h-29.75zM17 126h29.75v0.5h-29.75zM153.25 126.25h29.5v1h-29.5zM17.25 126.5h29.5v1h-29.5zM153 127.25h29.75v0.5h-29.75zM17.25 127.5h29.75v0.5h-29.75zM17.5 128h29.5v1h-29.5zM153 127.75h29.5v1.25h-29.5zM17.5 129h29.75v0.25h-29.75zM17.75 129.25h29.5v0.5h-29.5zM152.75 129h29.5v0.75h-29.5zM152.5 129.75h29.75v0.5h-29.75zM17.75 129.75h29.75v0.75h-29.75zM18 130.5h29.75v0.75h-29.75zM152.25 130.25h29.75v1h-29.75zM152 131.25h30v1h-30zM18 131.25h30v1.25h-30zM152 132.25h29.75v0.25h-29.75zM18.25 132.5h29.75v0.25h-29.75zM18.25 132.75h30v0.5h-30zM151.75 132.5h30v0.75h-30zM18.25 133.25h30.25v0.25h-30.25zM151.5 133.25h30.25v0.25h-30.25zM18.5 133.5h30v0.25h-30zM151.5 133.5h30v0.25h-30zM151.25 133.75h30.25v0.25h-30.25zM18.5 133.75h30.25v0.5h-30.25zM151.25 134h30v0.25h-30zM151 134.25h30.25v0.75h-30.25zM18.75 134.25h30.25v1h-30.25zM151 135h30v0.25h-30zM19 135.25h30v0.25h-30zM19 135.5h30.25v0.5h-30.25zM150.75 135.25h30.25v0.75h-30.25zM19 136h30.5v0.5h-30.5zM150.5 136h30.5v0.5h-30.5zM19 136.5h30.75v0.25h-30.75zM150.25 136.5h30.75v0.25h-30.75zM19.25 136.75h30.5v0.25h-30.5zM150.25 136.75h30.5v0.25h-30.5zM150 137h30.75v0.5h-30.75zM19.25 137h30.75v0.75h-30.75zM19.5 137.75h30.5v0.25h-30.5zM150 137.5h30.5v0.5h-30.5zM19.5 138h30.75v0.25h-30.75zM19.75 138.25h30.5v0.25h-30.5zM149.75 138h30.5v0.5h-30.5zM19.75 138.5h30.75v0.25h-30.75zM149.5 138.5h30.75v0.25h-30.75zM19.75 138.75h31v0.25h-31zM20 139h30.75v0.25h-30.75zM149.25 138.75h30.75v0.5h-30.75zM20 139.25h31v0.75h-31zM149 139.25h31v0.75h-31zM20 140h31.25v0.25h-31.25zM148.75 140h31.25v0.25h-31.25zM20.25 140.25h31v0.25h-31zM148.75 140.25h31v0.25h-31zM20.25 140.5h31.25v0.25h-31.25zM148.5 140.5h31.25v0.25h-31.25zM20.25 140.75h31.5v0.25h-31.5zM148.25 140.75h31.5v0.25h-31.5zM20.5 141h31.25v0.25h-31.25zM148.25 141h31.25v0.25h-31.25zM20.5 141.25h31.5v0.25h-31.5zM148 141.25h31.5v0.25h-31.5zM20.75 141.5h31.25v0.5h-31.25zM148 141.5h31.25v0.5h-31.25zM20.75 142h31.5v0.25h-31.5zM21 142.25h31.25v0.25h-31.25zM147.75 142h31.25v0.5h-31.25zM21 142.5h31.5v0.25h-31.5zM147.5 142.5h31.5v0.25h-31.5zM21 142.75h31.75v0.5h-31.75zM147.25 142.75h31.75v0.5h-31.75zM21.25 143.25h31.75v0.5h-31.75zM147 143.25h31.75v0.5h-31.75zM21.25 143.75h32v0.25h-32zM146.75 143.75h32v0.25h-32zM146.5 144h32v0.25h-32zM21.5 144h32v0.5h-32zM21.75 144.5h32v0.25h-32zM146.25 144.25h32v0.5h-32zM21.75 144.75h32.25v0.25h-32.25zM146 144.75h32.25v0.25h-32.25zM146 145h32v0.25h-32zM22 145h32v0.5h-32zM22 145.5h32.25v0.25h-32.25zM145.75 145.25h32.25v0.5h-32.25zM22 145.75h32.5v0.25h-32.5zM145.5 145.75h32.5v0.25h-32.5zM22.25 146h32.5v0.5h-32.5zM145.25 146h32.5v0.5h-32.5zM22.5 146.5h32.5v0.5h-32.5zM145 146.5h32.5v0.5h-32.5zM22.75 147h32.5v0.25h-32.5zM144.75 147h32.5v0.25h-32.5zM22.75 147.25h32.75v0.25h-32.75zM144.5 147.25h32.75v0.25h-32.75zM23 147.5h32.75v0.25h-32.75zM144.25 147.5h32.75v0.25h-32.75zM23 147.75h33v0.5h-33zM144 147.75h33v0.5h-33zM23 148.25h33.25v0.25h-33.25zM143.75 148.25h33.25v0.25h-33.25zM23.25 148.5h33v0.25h-33zM143.5 148.5h33.25v0.25h-33.25zM23.25 148.75h33.25v0.25h-33.25zM143.25 148.75h33.5v0.25h-33.5zM23.5 149h33.25v0.25h-33.25zM143.25 149h33.25v0.25h-33.25zM23.5 149.25h33.5v0.25h-33.5zM143 149.25h33.25v0.25h-33.25zM23.75 149.5h33.25v0.25h-33.25zM142.75 149.5h33.5v0.25h-33.5zM23.75 149.75h33.5v0.25h-33.5zM142.75 149.75h33.25v0.25h-33.25zM24 150h33.5v0.25h-33.5zM142.5 150h33.5v0.25h-33.5zM24 150.25h33.75v0.25h-33.75zM142.25 150.25h33.75v0.25h-33.75zM24 150.5h34v0.25h-34zM142 150.5h34v0.25h-34zM24.25 150.75h33.75v0.25h-33.75zM141.75 150.75h34v0.25h-34zM24.25 151h34v0.25h-34zM141.5 151h34.25v0.25h-34.25zM24.5 151.25h34v0.25h-34zM141.25 151.25h34.25v0.25h-34.25zM24.75 151.5h34v0.25h-34zM141.25 151.5h34v0.25h-34zM24.75 151.75h34.25v0.25h-34.25zM141 151.75h34.25v0.25h-34.25zM25 152h34.25v0.25h-34.25zM140.75 152h34.25v0.25h-34.25zM25 152.25h34.5v0.25h-34.5zM140.5 152.25h34.5v0.25h-34.5zM25 152.5h34.75v0.25h-34.75zM140.25 152.5h34.75v0.25h-34.75zM25.25 152.75h17.25v0.25h-17.25zM45 152.75h15v0.25h-15zM140 152.75h15v0.25h-15zM157.5 152.75h17.25v0.25h-17.25zM25.25 153h16.25v0.25h-16.25zM45.75 153h14.5v0.25h-14.5zM139.75 153h14.5v0.25h-14.5zM158.5 153h16.25v0.25h-16.25zM25.5 153.25h15.75v0.25h-15.75zM46 153.25h14.25v0.25h-14.25zM139.5 153.25h14.5v0.25h-14.5zM158.75 153.25h15.75v0.25h-15.75zM25.75 153.5h15.25v0.25h-15.25zM46.25 153.5h14.25v0.25h-14.25zM139.5 153.5h14.25v0.25h-14.25zM159 153.5h15.25v0.25h-15.25zM25.75 153.75h15v0.25h-15zM46.5 153.75h14.25v0.25h-14.25zM139.25 153.75h14v0.25h-14zM159.25 153.75h15v0.25h-15zM26 154h14.5v0.25h-14.5zM46.75 154h14.25v0.25h-14.25zM139 154h14v0.25h-14zM159.5 154h14.5v0.25h-14.5zM26 154.25h14.25v0.25h-14.25zM47 154.25h14.25v0.25h-14.25zM138.75 154.25h14.25v0.25h-14.25zM26 154.5h14v0.25h-14zM47.25 154.5h14.25v0.25h-14.25zM138.5 154.5h14.25v0.25h-14.25zM159.75 154.25h14.25v0.5h-14.25zM47.25 154.75h14.5v0.25h-14.5zM138.25 154.75h14.5v0.25h-14.5zM26.25 154.75h13.75v0.5h-13.75zM47.5 155h14.5v0.25h-14.5zM138 155h14.5v0.25h-14.5zM160 154.75h13.75v0.5h-13.75zM26.5 155.25h13.5v0.25h-13.5zM47.5 155.25h14.75v0.25h-14.75zM137.75 155.25h14.5v0.25h-14.5zM160 155.25h13.5v0.25h-13.5zM47.75 155.5h14.75v0.25h-14.75zM137.5 155.5h14.75v0.25h-14.75zM26.75 155.5h13v0.5h-13zM47.75 155.75h15v0.25h-15zM137.25 155.75h15v0.25h-15zM160.25 155.5h13v0.5h-13zM47.75 156h15.5v0.25h-15.5zM136.75 156h15.5v0.25h-15.5zM47.75 156.25h15.75v0.25h-15.75zM136.5 156.25h15.75v0.25h-15.75zM160.25 156h12.75v0.5h-12.75zM27 156h12.75v0.75h-12.75zM47.75 156.5h16v0.25h-16zM136.25 156.5h16v0.25h-16zM27.25 156.75h12.5v0.25h-12.5zM47.75 156.75h16.25v0.25h-16.25zM136 156.75h16.25v0.25h-16.25zM160.25 156.5h12.5v0.5h-12.5zM27.5 157h12.25v0.25h-12.25zM47.75 157h16.5v0.25h-16.5zM135.75 157h16.5v0.25h-16.5zM160.25 157h12.25v0.25h-12.25zM47.75 157.25h16.75v0.25h-16.75zM135.5 157.25h16.75v0.25h-16.75zM27.75 157.25h12v0.5h-12zM47.75 157.5h17v0.25h-17zM135.25 157.5h17v0.25h-17zM160.25 157.25h12v0.5h-12zM28 157.75h11.75v0.25h-11.75zM47.75 157.75h17.25v0.25h-17.25zM135 157.75h17.25v0.25h-17.25zM47.5 158h18v0.25h-18zM134.5 158h18v0.25h-18zM160 157.75h12v0.5h-12zM28 158h12v0.5h-12zM47.25 158.25h18.5v0.25h-18.5zM134.25 158.25h18.25v0.25h-18.25zM28.25 158.5h11.75v0.25h-11.75zM47.25 158.5h18.75v0.25h-18.75zM134 158.5h18.75v0.25h-18.75zM160 158.25h11.75v0.5h-11.75zM28.5 158.75h11.75v0.25h-11.75zM47 158.75h19.25v0.25h-19.25zM133.75 158.75h19.25v0.25h-19.25zM159.75 158.75h11.75v0.25h-11.75zM28.75 159h11.75v0.25h-11.75zM47 159h19.75v0.25h-19.75zM133.25 159h19.75v0.25h-19.75zM159.5 159h11.75v0.25h-11.75zM28.75 159.25h12v0.25h-12zM46.75 159.25h20.25v0.25h-20.25zM133 159.25h20.25v0.25h-20.25zM159.25 159.25h12v0.25h-12zM29 159.5h12v0.25h-12zM46.5 159.5h20.75v0.25h-20.75zM132.75 159.5h20.5v0.25h-20.5zM159 159.5h12v0.25h-12zM29 159.75h12.25v0.25h-12.25zM46.25 159.75h21.25v0.25h-21.25zM132.5 159.75h21.25v0.25h-21.25zM158.75 159.75h12.25v0.25h-12.25zM29.25 160h12.25v0.25h-12.25zM45.75 160h22.25v0.25h-22.25zM132 160h22.25v0.25h-22.25zM158.25 160h12.5v0.25h-12.5zM29.25 160.25h12.75v0.25h-12.75zM45.25 160.25h23v0.25h-23zM131.75 160.25h23v0.25h-23zM157.75 160.25h12.75v0.25h-12.75zM29.5 160.5h13v0.25h-13zM44.75 160.5h23.75v0.25h-23.75zM131.5 160.5h23.5v0.25h-23.5zM157.5 160.5h12.75v0.25h-12.75zM29.75 160.75h39.25v0.25h-39.25zM131 160.75h39.25v0.25h-39.25zM30 161h39.25v0.25h-39.25zM130.5 161h39.5v0.25h-39.5zM30 161.25h39.75v0.25h-39.75zM130.25 161.25h39.75v0.25h-39.75zM30.25 161.5h39.75v0.25h-39.75zM130 161.5h39.75v0.25h-39.75zM30.25 161.75h40v0.25h-40zM129.75 161.75h40v0.25h-40zM30.5 162h40.5v0.25h-40.5zM129 162h40.5v0.25h-40.5zM30.75 162.25h40.5v0.25h-40.5zM128.75 162.25h40.5v0.25h-40.5zM31 162.5h40.5v0.25h-40.5zM128.5 162.5h40.5v0.25h-40.5zM31 162.75h41v0.25h-41zM128 162.75h41v0.25h-41zM31.25 163h41.25v0.25h-41.25zM127.5 163h41.25v0.25h-41.25zM31.25 163.25h41.75v0.25h-41.75zM127 163.25h41.75v0.25h-41.75zM31.5 163.5h41.75v0.25h-41.75zM126.75 163.5h41.75v0.25h-41.75zM31.75 163.75h41.75v0.25h-41.75zM126.5 163.75h41.75v0.25h-41.75zM32 164h42.25v0.25h-42.25zM125.75 164h42.25v0.25h-42.25zM32 164.25h42.75v0.25h-42.75zM125.25 164.25h42.75v0.25h-42.75zM32.25 164.5h42.75v0.25h-42.75zM125 164.5h42.75v0.25h-42.75zM32.5 164.75h43v0.25h-43zM124.5 164.75h43v0.25h-43zM32.75 165h43.5v0.25h-43.5zM123.75 165h43.5v0.25h-43.5zM32.75 165.25h44v0.25h-44zM123.25 165.25h43.75v0.25h-43.75zM33 165.5h44v0.25h-44zM123 165.5h44v0.25h-44zM33.25 165.75h44.25v0.25h-44.25zM122.5 165.75h44.25v0.25h-44.25zM33.25 166h45v0.25h-45zM121.75 166h44.75v0.25h-44.75zM33.5 166.25h45.5v0.25h-45.5zM121 166.25h45.25v0.25h-45.25zM33.75 166.5h45.5v0.25h-45.5zM120.75 166.5h45.5v0.25h-45.5zM34 166.75h45.75v0.25h-45.75zM120.25 166.75h45.75v0.25h-45.75zM34 167h47v0.25h-47zM119 167h46.75v0.25h-46.75zM34.25 167.25h47.25v0.25h-47.25zM118.5 167.25h47.25v0.25h-47.25zM34.5 167.5h47.5v0.25h-47.5zM118 167.5h47.5v0.25h-47.5zM34.75 167.75h47.75v0.25h-47.75zM117.5 167.75h47.75v0.25h-47.75zM35 168h48.5v0.25h-48.5zM116.25 168h48.75v0.25h-48.75zM35 168.25h49.25v0.25h-49.25zM115.75 168.25h49.25v0.25h-49.25zM35.25 168.5h49.75v0.25h-49.75zM115 168.5h49.75v0.25h-49.75zM35.5 168.75h50.25v0.25h-50.25zM114.25 168.75h50.25v0.25h-50.25zM35.75 169h51.5v0.25h-51.5zM112.75 169h51.5v0.25h-51.5zM36 169.25h52v0.25h-52zM112 169.25h52v0.25h-52zM36 169.5h52.75v0.25h-52.75zM111.25 169.5h52.75v0.25h-52.75zM36.25 169.75h53.5v0.25h-53.5zM110.25 169.75h53.5v0.25h-53.5zM36.5 170h55.75v0.25h-55.75zM107.75 170h55.75v0.25h-55.75zM36.75 170.25h57v0.25h-57zM106.25 170.25h57v0.25h-57zM37 170.5h58v0.25h-58zM105 170.5h58v0.25h-58zM37.25 170.75h61.5v0.25h-61.5zM101.25 170.75h61.5v0.25h-61.5zM37.5 171h125v0.25h-125zM37.75 171.25h124.5v0.25h-124.5zM38 171.5h124v0.5h-124zM38.25 172h123.5v0.25h-123.5zM38.5 172.25h123v0.25h-123zM38.75 172.5h122.5v0.25h-122.5zM39 172.75h122v0.25h-122zM39.25 173h121.5v0.25h-121.5zM39.5 173.25h121v0.25h-121zM39.75 173.5h120.5v0.25h-120.5zM40 173.75h120v0.25h-120zM40.25 174h119.5v0.25h-119.5zM40.5 174.25h119v0.25h-119zM40.75 174.5h118.5v0.25h-118.5zM41 174.75h118v0.25h-118zM41.25 175h117.5v0.25h-117.5zM41.5 175.25h117v0.25h-117zM41.75 175.5h116.5v0.25h-116.5zM42 175.75h116v0.25h-116zM42.25 176h115.5v0.25h-115.5zM42.5 176.25h115v0.25h-115zM42.75 176.5h114.5v0.25h-114.5zM43 176.75h114v0.25h-114zM43.25 177h113.5v0.25h-113.5zM43.5 177.25h113v0.25h-113zM43.75 177.5h112.5v0.25h-112.5zM44 177.75h112v0.25h-112zM44.25 178h111.25v0.25h-111.25zM44.75 178.25h110.5v0.25h-110.5zM45 178.5h110v0.25h-110zM45.25 178.75h109.5v0.25h-109.5zM45.5 179h109v0.25h-109zM45.75 179.25h108.5v0.25h-108.5zM46 179.5h108v0.25h-108zM46.25 179.75h107.5v0.25h-107.5zM46.75 180h106.5v0.25h-106.5zM47 180.25h106v0.25h-106zM47 180.5h105.75v0.25h-105.75zM47.5 180.75h105v0.25h-105zM47.75 181h104.5v0.25h-104.5zM48 181.25h51.25v0.25h-51.25zM100.75 181.25h51v0.25h-51zM48.25 181.5h50.5v0.25h-50.5zM101.25 181.5h50.25v0.25h-50.25zM48.75 181.75h49.25v0.25h-49.25zM102 181.75h49.25v0.25h-49.25zM49 182h48.5v0.25h-48.5zM102.5 182h48.25v0.25h-48.25zM49.5 182.25h47.75v0.25h-47.75zM102.75 182.25h47.75v0.25h-47.75zM49.75 182.5h47.25v0.25h-47.25zM103 182.5h47.25v0.25h-47.25zM50 182.75h47v0.25h-47zM103 182.75h47v0.25h-47zM50.5 183h46.25v0.25h-46.25zM103.25 183h46.25v0.25h-46.25zM50.75 183.25h45.75v0.25h-45.75zM103.5 183.25h45.75v0.25h-45.75zM51 183.5h45.25v0.25h-45.25zM103.75 183.5h45.25v0.25h-45.25zM51.25 183.75h45v0.25h-45zM103.75 183.75h45v0.25h-45zM51.75 184h44.25v0.25h-44.25zM104 184h44.25v0.25h-44.25zM52 184.25h44v0.25h-44zM104 184.25h43.75v0.25h-43.75zM52.25 184.5h43.75v0.25h-43.75zM104 184.5h43.5v0.25h-43.5zM52.75 184.75h43.25v0.25h-43.25zM104 184.75h43.25v0.25h-43.25zM53.25 185h42.75v0.25h-42.75zM104 185h42.75v0.25h-42.75zM53.5 185.25h42.5v0.25h-42.5zM104 185.25h42.5v0.25h-42.5zM53.75 185.5h42.25v0.25h-42.25zM104 185.5h42.25v0.25h-42.25zM54.25 185.75h41.75v0.25h-41.75zM104 185.75h41.75v0.25h-41.75zM54.75 186h41.25v0.25h-41.25zM104 186h41.25v0.25h-41.25zM55 186.25h41v0.25h-41zM104 186.25h41v0.25h-41zM55.25 186.5h40.75v0.25h-40.75zM104 186.5h40.75v0.25h-40.75zM55.75 186.75h40.25v0.25h-40.25zM103.75 186.75h40.5v0.25h-40.5zM56.25 187h40v0.25h-40zM103.75 187h40v0.25h-40zM56.75 187.25h39.5v0.25h-39.5zM103.5 187.25h39.75v0.25h-39.75zM57 187.5h39.5v0.25h-39.5zM103.5 187.5h39.5v0.25h-39.5zM57.25 187.75h39.5v0.25h-39.5zM103.25 187.75h39.5v0.25h-39.5zM58 188h39v0.25h-39zM103 188h39v0.25h-39zM58.25 188.25h39v0.25h-39zM102.75 188.25h38.75v0.25h-38.75zM58.5 188.5h38.75v0.25h-38.75zM102.5 188.5h38.75v0.25h-38.75zM59 188.75h38.75v0.25h-38.75zM102.25 188.75h38.75v0.25h-38.75zM59.75 189h38.75v0.25h-38.75zM101.5 189h38.75v0.25h-38.75zM60 189.25h39.25v0.25h-39.25zM100.75 189.25h39.25v0.25h-39.25zM60.25 189.5h79.25v0.25h-79.25zM60.75 189.75h78.5v0.25h-78.5zM61.5 190h77v0.25h-77zM62 190.25h76v0.25h-76zM62.25 190.5h75.5v0.25h-75.5zM62.75 190.75h74.5v0.25h-74.5zM63.5 191h73v0.25h-73zM64 191.25h72v0.25h-72zM64.25 191.5h71.5v0.25h-71.5zM64.75 191.75h70.5v0.25h-70.5zM65.5 192h69v0.25h-69zM66 192.25h68v0.25h-68zM66.5 192.5h67v0.25h-67zM67 192.75h66v0.25h-66zM67.75 193h64.5v0.25h-64.5zM68.25 193.25h63.5v0.25h-63.5zM68.75 193.5h62.5v0.25h-62.5zM69.25 193.75h61.5v0.25h-61.5zM70.25 194h59.5v0.25h-59.5zM70.75 194.25h58.5v0.25h-58.5zM71.25 194.5h57.5v0.25h-57.5zM71.75 194.75h56.5v0.25h-56.5zM73 195h54v0.25h-54zM73.5 195.25h52.75v0.25h-52.75zM74 195.5h52v0.25h-52zM74.75 195.75h50.5v0.25h-50.5zM76 196h48v0.25h-48zM76.75 196.25h46.5v0.25h-46.5zM77.25 196.5h45.5v0.25h-45.5zM78 196.75h44v0.25h-44zM79.5 197h41v0.25h-41zM80.25 197.25h39.5v0.25h-39.5zM81 197.5h38v0.25h-38zM81.75 197.75h36.25v0.25h-36.25zM83.5 198h33v0.25h-33zM84.75 198.25h30.5v0.25h-30.5zM85.75 198.5h28.5v0.25h-28.5zM87.25 198.75h25.5v0.25h-25.5zM90 199h19.75v0.25h-19.75zM91.5 199.25h17v0.25h-17zM92.25 199.5h15.5v0.25h-15.5zM92.75 199.75h14.5v0.25h-14.5z"/>
</svg>
