<?xml version="1.0" encoding="UTF-8"?>
<svg xmlns="http://www.w3.org/2000/svg"
     width="353" height="304"
     viewBox="0 0 353 304">
  <path d="M 52 26 L 52 30 L 51 32 L 52 33 L 52 36 L 54 39 L 54 42 L 50 46 L 48 50 L 48 53 L 47 54 L 47 59 L 46 60 L 46 66 L 47 67 L 47 71 L 48 71 L 48 69 L 51 65 L 53 67 L 54 69 L 54 80 L 53 81 L 53 85 L 52 86 L 52 89 L 51 90 L 50 97 L 48 101 L 48 104 L 53 109 L 54 112 L 57 115 L 63 115 L 64 114 L 68 114 L 70 113 L 73 110 L 73 101 L 75 99 L 76 96 L 78 94 L 81 87 L 82 86 L 84 86 L 88 84 L 92 80 L 94 82 L 94 86 L 95 87 L 95 106 L 94 107 L 94 111 L 93 112 L 93 115 L 92 116 L 92 118 L 89 124 L 85 129 L 84 131 L 84 133 L 83 134 L 83 136 L 82 137 L 82 141 L 81 142 L 81 155 L 82 156 L 82 160 L 78 162 L 63 162 L 62 161 L 46 161 L 38 165 L 38 166 L 35 169 L 34 171 L 34 173 L 31 177 L 31 178 L 29 180 L 29 181 L 26 184 L 26 185 L 23 188 L 23 189 L 14 200 L 14 205 L 15 206 L 15 209 L 16 210 L 16 224 L 18 228 L 21 231 L 21 232 L 27 238 L 28 238 L 29 236 L 32 233 L 35 227 L 35 221 L 34 219 L 30 215 L 29 215 L 26 211 L 27 210 L 32 210 L 32 209 L 29 206 L 29 202 L 30 201 L 31 196 L 34 192 L 34 191 L 36 189 L 36 188 L 40 184 L 40 183 L 45 178 L 47 177 L 57 177 L 58 178 L 61 178 L 62 179 L 64 179 L 68 181 L 71 181 L 72 182 L 74 182 L 75 183 L 77 183 L 81 185 L 84 185 L 85 186 L 87 186 L 91 188 L 98 188 L 104 185 L 109 185 L 111 188 L 111 190 L 112 191 L 112 225 L 111 226 L 111 228 L 108 234 L 108 239 L 109 240 L 109 244 L 110 245 L 110 259 L 109 260 L 109 267 L 108 268 L 108 272 L 107 273 L 107 275 L 106 276 L 106 278 L 104 282 L 99 287 L 97 287 L 93 291 L 93 292 L 91 294 L 88 300 L 88 302 L 89 303 L 109 303 L 111 301 L 111 293 L 116 288 L 118 289 L 116 292 L 117 292 L 120 289 L 120 287 L 121 286 L 121 280 L 120 279 L 120 275 L 119 274 L 119 265 L 120 264 L 120 253 L 121 252 L 121 248 L 125 242 L 125 234 L 126 233 L 126 227 L 127 226 L 127 222 L 128 221 L 128 218 L 129 217 L 129 214 L 130 213 L 130 210 L 131 209 L 131 206 L 132 205 L 132 202 L 133 201 L 133 198 L 134 197 L 134 193 L 135 192 L 138 192 L 139 193 L 142 193 L 143 194 L 147 194 L 148 195 L 153 195 L 154 196 L 182 196 L 183 195 L 188 195 L 189 194 L 196 193 L 197 192 L 202 191 L 208 188 L 209 189 L 209 193 L 210 194 L 210 196 L 212 200 L 216 205 L 216 206 L 222 212 L 222 213 L 233 223 L 233 224 L 235 226 L 235 232 L 228 239 L 227 239 L 224 242 L 223 242 L 212 250 L 209 251 L 205 255 L 205 257 L 204 258 L 204 278 L 207 282 L 208 285 L 211 288 L 212 290 L 213 290 L 218 285 L 221 279 L 221 277 L 222 276 L 222 273 L 219 269 L 217 269 L 216 268 L 216 265 L 217 264 L 219 264 L 220 265 L 223 265 L 225 266 L 225 265 L 222 262 L 222 257 L 226 253 L 227 253 L 232 249 L 235 248 L 237 246 L 247 241 L 249 241 L 252 239 L 255 239 L 257 242 L 257 247 L 258 248 L 258 255 L 257 256 L 257 263 L 256 264 L 256 268 L 255 269 L 255 272 L 254 273 L 253 280 L 251 284 L 248 287 L 241 289 L 237 293 L 237 294 L 233 299 L 233 302 L 234 303 L 254 303 L 256 301 L 256 295 L 257 293 L 260 290 L 262 290 L 266 288 L 271 290 L 268 284 L 268 281 L 267 280 L 267 265 L 268 264 L 268 258 L 269 257 L 269 253 L 270 252 L 270 249 L 271 248 L 272 241 L 273 240 L 273 238 L 275 234 L 275 230 L 276 229 L 275 227 L 271 223 L 271 222 L 266 217 L 266 216 L 264 214 L 259 204 L 259 199 L 267 191 L 267 190 L 272 184 L 276 176 L 276 174 L 277 173 L 277 170 L 278 169 L 278 154 L 277 153 L 277 150 L 276 149 L 276 147 L 272 140 L 273 138 L 276 138 L 282 141 L 285 145 L 287 149 L 287 151 L 288 152 L 288 158 L 289 159 L 289 162 L 288 163 L 288 170 L 287 171 L 287 176 L 286 177 L 286 182 L 285 183 L 285 189 L 284 190 L 284 207 L 285 208 L 285 214 L 286 215 L 286 218 L 287 219 L 287 221 L 288 222 L 288 224 L 289 225 L 289 227 L 290 229 L 292 231 L 293 234 L 299 240 L 300 240 L 297 236 L 297 234 L 296 233 L 297 231 L 299 233 L 299 234 L 301 236 L 303 240 L 306 243 L 306 244 L 315 252 L 319 254 L 321 254 L 322 255 L 327 255 L 328 256 L 329 255 L 334 255 L 334 254 L 332 254 L 328 252 L 322 246 L 322 245 L 320 243 L 314 231 L 315 230 L 317 230 L 320 233 L 322 234 L 324 234 L 325 235 L 336 235 L 336 234 L 332 234 L 331 233 L 329 233 L 321 225 L 320 222 L 318 220 L 320 219 L 323 222 L 325 223 L 327 223 L 328 224 L 328 223 L 326 221 L 326 220 L 324 218 L 322 214 L 322 212 L 321 211 L 321 208 L 320 207 L 320 188 L 321 187 L 323 189 L 323 193 L 324 194 L 324 199 L 325 200 L 325 208 L 326 208 L 327 206 L 327 203 L 328 202 L 328 199 L 329 198 L 329 178 L 328 177 L 328 172 L 327 171 L 327 168 L 326 167 L 327 166 L 329 166 L 331 168 L 332 168 L 332 167 L 329 164 L 326 158 L 326 156 L 324 152 L 324 148 L 321 142 L 321 140 L 316 134 L 316 133 L 313 130 L 312 130 L 306 125 L 304 124 L 302 124 L 301 123 L 299 123 L 298 122 L 284 122 L 283 123 L 280 123 L 272 127 L 268 131 L 266 131 L 264 130 L 259 125 L 258 125 L 253 121 L 249 119 L 247 119 L 244 117 L 241 117 L 240 116 L 236 116 L 235 115 L 220 115 L 219 116 L 214 116 L 213 117 L 208 117 L 207 118 L 199 118 L 198 119 L 194 119 L 193 118 L 186 118 L 185 117 L 178 116 L 170 112 L 161 103 L 163 102 L 167 104 L 170 104 L 165 99 L 165 98 L 163 96 L 163 94 L 162 92 L 160 90 L 161 88 L 163 88 L 164 89 L 167 89 L 167 88 L 166 88 L 162 83 L 158 75 L 157 70 L 154 64 L 151 61 L 152 59 L 154 60 L 161 60 L 161 59 L 159 58 L 157 58 L 155 56 L 154 56 L 144 46 L 143 46 L 140 43 L 135 41 L 132 38 L 131 38 L 122 29 L 116 26 L 110 26 L 109 25 L 106 25 L 105 26 L 103 26 L 102 25 L 103 23 L 99 23 L 98 22 L 89 22 L 88 23 L 85 23 L 84 24 L 82 24 L 78 26 L 75 29 L 74 29 L 66 21 L 63 20 L 64 22 L 64 28 L 65 29 L 65 33 L 63 35 L 62 35 L 58 31 L 57 31 L 54 28 L 53 26 Z" fill="#555555"/>
</svg>
